# xmcd
#
# Track frame offsets:
#	150
#	16540
#	34175
#	53022
#	73482
#	90970
#	110977
#	131545
#	146987
#	165447
#	183310
#	203495
#	219875
#	237952
#	255707
#
# Disc length: 3629 seconds
#
# Revision: 0
# Processed by: cddbd v1.4PL0 Copyright (c) Steve Scherf et al.
# Submitted via: EasyCDDAExtractor 5.0.5.1
#
DISCID=cd0e2b0f
DTITLE=Zezé Di Camargo and Luciano
DYEAR=2000
DGENRE=SERTANEJO
TTITLE0=Tarde Demais
TTITLE1=Sem Você
TTITLE2=Antes De Voltar Pra Casa
TTITLE3=Dou A Vida Por Um Beijo
TTITLE4=O Que É Que Eu Faço?
TTITLE5=Demorou Demais
TTITLE6=A Saudade É Uma Pedra
TTITLE7=Do Jeito Que A Moçada Gosta
TTITLE8=Você Não É Mais Assim
TTITLE9=Saudade De Nós Dois
TTITLE10=Deve Ser Amor
TTITLE11=Vou Levar Você
TTITLE12=Tranque A Porta E Me Beija
TTITLE13=O Bicho Vai Pegar
TTITLE14=Ainda Sou O Mesmo Homem
EXTD=
EXTT0=
EXTT1=
EXTT2=
EXTT3=
EXTT4=
EXTT5=
EXTT6=
EXTT7=
EXTT8=
EXTT9=
EXTT10=
EXTT11=
EXTT12=
EXTT13=
EXTT14=
PLAYORDER=
